<svg width="456" height="456" viewBox="0 0 456 456" fill="none" xmlns="http://www.w3.org/2000/svg">
<g clip-path="url(#clip0_1788_22)">
<mask id="mask0_1788_22" style="mask-type:luminance" maskUnits="userSpaceOnUse" x="0" y="0" width="456" height="456">
<path d="M456 0H0V456H456V0Z" fill="white"/>
</mask>
<g mask="url(#mask0_1788_22)">
<mask id="mask1_1788_22" style="mask-type:luminance" maskUnits="userSpaceOnUse" x="0" y="0" width="456" height="456">
<path d="M0 228C0 353.921 102.079 456 228 456C353.921 456 456 353.921 456 228C456 102.079 353.921 0 228 0C102.079 0 0 102.079 0 228Z" fill="white"/>
</mask>
<g mask="url(#mask1_1788_22)">
<path d="M456 228C456 102.079 353.921 0 228 0C102.079 0 0 102.079 0 228C0 353.921 102.079 456 228 456C353.921 456 456 353.921 456 228Z" fill="#386CDE"/>
</g>
</g>
</g>
<defs>
<clipPath id="clip0_1788_22">
<rect width="456" height="456" fill="white"/>
</clipPath>
</defs>
</svg>
